<svg width="8" height="12" viewBox="0 0 8 12" fill="none" xmlns="http://www.w3.org/2000/svg">
<path d="M7.77023 5.99401C7.77023 6.13786 7.74625 6.26174 7.6983 6.36563C7.65834 6.46154 7.58641 6.56543 7.48252 6.67732L2.42358 11.7243C2.32767 11.8202 2.22777 11.8921 2.12388 11.9401C2.01998 11.98 1.8961 12 1.75225 12C1.61638 12 1.4965 11.98 1.39261 11.9401C1.28871 11.8921 1.18482 11.8202 1.08092 11.7243L0.517482 11.1608C0.421578 11.0649 0.34965 10.957 0.301698 10.8372C0.253746 10.7093 0.22977 10.5894 0.22977 10.4775C0.22977 10.3417 0.24975 10.2218 0.28971 10.1179C0.337662 10.014 0.413586 9.91009 0.517482 9.80619L4.24575 5.99401L0.52947 2.3017C0.441558 2.21379 0.373626 2.10989 0.325674 1.99001C0.277722 1.86214 0.253746 1.74226 0.253746 1.63037C0.253746 1.49451 0.273726 1.37463 0.313686 1.27073C0.361638 1.16683 0.433566 1.06294 0.52947 0.959041L1.09291 0.275725C1.18881 0.17982 1.28871 0.111888 1.39261 0.0719283C1.4965 0.0239761 1.62038 0 1.76424 0C1.90809 0 2.02797 0.0239761 2.12388 0.0719283C2.22777 0.111888 2.33566 0.17982 2.44755 0.275725L7.47053 5.34665C7.57443 5.44256 7.65035 5.54246 7.6983 5.64635C7.74625 5.74226 7.77023 5.85814 7.77023 5.99401Z" fill="#296797"/>
</svg>
