<svg width="14" height="14" viewBox="0 0 14 14" fill="none" xmlns="http://www.w3.org/2000/svg">
<path d="M12.7463 2.24476H11.02L10.5884 3.68332C10.5778 3.7366 10.5458 3.75791 10.4925 3.74725V2.24476C10.4925 1.71196 10.4765 1.37096 10.4446 1.22178V1.18981C10.4232 1.06194 10.4019 0.966034 10.3806 0.902099C10.3273 0.795538 10.2527 0.742258 10.1568 0.742258H9.43756C9.331 0.742258 9.25108 0.800866 9.1978 0.918082C9.16583 0.992674 9.13919 1.09923 9.11788 1.23776C9.09657 1.37629 9.0646 1.71196 9.02198 2.24476H5.02597L4.59441 3.68332C4.57309 3.7366 4.54113 3.75791 4.4985 3.74725V2.24476C4.48785 1.71196 4.47186 1.37096 4.45055 1.22178V1.18981C4.42924 1.06194 4.4026 0.966034 4.37063 0.902099C4.32801 0.795538 4.25341 0.742258 4.14685 0.742258H3.44356C3.337 0.742258 3.25708 0.800866 3.2038 0.918082C3.17183 0.992674 3.13986 1.09923 3.10789 1.23776C3.08658 1.37629 3.05461 1.71196 3.01199 2.24476H1.25375C1.11522 2.24476 0.992674 2.29804 0.886114 2.4046C0.79021 2.5005 0.742258 2.61772 0.742258 2.75624V12.7463C0.742258 12.8848 0.79021 13.0073 0.886114 13.1139C0.992674 13.2098 1.11522 13.2577 1.25375 13.2577H12.7463C12.8848 13.2577 13.002 13.2098 13.0979 13.1139C13.2045 13.0073 13.2577 12.8848 13.2577 12.7463V2.75624C13.2577 2.61772 13.2045 2.5005 13.0979 2.4046C13.002 2.29804 12.8848 2.24476 12.7463 2.24476ZM11.995 11.995H2.00499V5.5055H11.995V11.995ZM2.996 6.75225H4.99401V8.25475H2.996V6.75225ZM6.001 6.75225H7.999V8.25475H6.001V6.75225ZM9.00599 6.75225H11.004V8.25475H9.00599V6.75225ZM2.996 9.24575H4.99401V10.7483H2.996V9.24575ZM6.001 9.24575H7.999V10.7483H6.001V9.24575ZM9.00599 9.24575H11.004V10.7483H9.00599V9.24575Z" fill="black" fill-opacity="0.5"/>
</svg>
