<svg width="50" height="100" viewBox="0 0 50 100" fill="none" xmlns="http://www.w3.org/2000/svg">
<path d="M50 0H0V100H50V0Z" fill="#154273"/>
<path d="M25.8999 77.36H25.0299V74.95H25.8999V77.36ZM29.8299 66.72H28.9599V64.31H29.8299V66.72ZM13.7099 62.56C13.6399 62.56 13.1899 62.56 13.1899 62.65C13.1899 62.74 13.3999 62.7 13.7099 62.75C14.4099 62.87 14.6799 63.22 15.1699 63.22C15.6099 63.22 16.0699 62.92 15.8899 62.28C15.8599 62.17 15.7999 62.2 15.7799 62.27C15.7099 62.56 15.3599 62.72 14.9899 62.72C14.5299 62.72 14.4399 62.56 13.7099 62.56ZM8.91989 64.97C8.99989 65.08 9.81989 66.14 8.55989 66.55C8.49989 66.57 8.48989 66.62 8.56989 66.66C9.49989 67.05 9.94989 66.33 9.94989 66.33C10.4199 67.41 9.69989 68 9.69989 68C9.79989 68.19 10.2499 68.52 10.9199 68.67C11.1799 68.53 11.5399 68.27 11.6899 67.87C11.6899 67.87 11.8699 68.34 11.7099 68.79C13.6099 68.96 14.2799 67.44 15.7499 67.72C15.7899 67.73 15.8099 67.7 15.8099 67.66C15.8099 66.72 15.2399 65.01 13.4199 64.66C11.6099 64.31 12.0999 63.57 12.0999 63.57C12.8599 63.54 13.2999 63.87 13.2999 63.87C13.4399 63.64 13.2399 63.4 13.2399 63.4C13.3099 63.31 13.3499 63 13.3499 63C12.4899 63 12.2699 62.81 12.2699 62.81C12.1399 62.3 12.4899 61.58 13.7699 62.35C14.0899 62.07 14.0599 61.63 14.0599 61.63C14.1599 61.58 14.2199 61.43 14.2199 61.37C14.2199 61.16 13.1999 60.59 12.9399 60.52C12.8799 60.21 12.4799 59.77 11.2799 59.93C10.7099 60 10.2999 59.85 10.4899 59.52C10.5199 59.46 10.4199 59.45 10.3699 59.51C10.2399 59.64 10.0599 60.01 10.5499 60.26C11.0999 60.54 11.1299 61.09 11.1399 61.17C11.1499 61.29 11.0099 61.3 10.9799 61.18C10.7299 60.25 9.44989 60.05 8.69989 60.54C8.73989 61.04 9.27989 61.37 9.56989 61.37C9.73989 61.37 9.96989 61.2 9.96989 60.97C9.96989 60.86 10.0299 60.87 10.0599 60.96C10.1799 61.29 9.68989 61.98 8.96989 61.56C8.22989 62.3 8.52989 63.22 8.59989 63.55C8.72989 64.15 8.43989 64.74 7.88989 64.47C7.85989 64.46 7.82989 64.45 7.82989 64.51C7.83989 64.87 8.32989 65.3 8.91989 64.97ZM12.9999 61.24C12.6499 61.63 12.0899 61.54 11.9499 60.9C12.6699 60.86 12.9699 60.93 12.9999 61.24ZM35.0699 62.72C34.6999 62.72 34.3499 62.56 34.2799 62.27C34.2599 62.2 34.1999 62.17 34.1699 62.28C33.9899 62.92 34.4499 63.22 34.8899 63.22C35.3799 63.22 35.6499 62.87 36.3499 62.75C36.6599 62.7 36.8699 62.75 36.8699 62.65C36.8699 62.56 36.4199 62.56 36.3499 62.56C35.6299 62.56 35.5299 62.72 35.0699 62.72ZM42.2299 64.49C42.2299 64.43 42.1999 64.44 42.1699 64.45C41.6199 64.72 41.3299 64.14 41.4599 63.53C41.5299 63.19 41.8299 62.28 41.0899 61.54C40.3599 61.96 39.8699 61.27 39.9999 60.94C40.0299 60.85 40.0899 60.84 40.0899 60.95C40.0899 61.18 40.3199 61.35 40.4899 61.35C40.7799 61.35 41.3199 61.02 41.3599 60.52C40.6099 60.03 39.3299 60.23 39.0799 61.16C39.0499 61.28 38.9099 61.27 38.9199 61.15C38.9199 61.07 38.9599 60.52 39.5099 60.24C40.0099 59.99 39.8299 59.62 39.6899 59.49C39.6399 59.44 39.5299 59.45 39.5699 59.5C39.7599 59.83 39.3499 59.98 38.7899 59.91C37.5899 59.75 37.1999 60.2 37.1299 60.5C36.8699 60.57 35.8499 61.14 35.8499 61.35C35.8499 61.41 35.9099 61.57 36.0099 61.61C36.0099 61.61 35.9899 62.04 36.2999 62.33C37.5699 61.56 37.9299 62.28 37.7999 62.79C37.7999 62.79 37.5699 62.97 36.7099 62.98C36.7099 62.98 36.7499 63.29 36.8199 63.38C36.8199 63.38 36.6199 63.63 36.7599 63.85C36.7599 63.85 37.1999 63.52 37.9599 63.55C37.9599 63.55 38.4499 64.29 36.6399 64.64C34.8299 64.99 34.2499 66.7 34.2499 67.64C34.2499 67.69 34.2699 67.71 34.3099 67.7C35.7799 67.43 36.4499 68.95 38.3499 68.77C38.1799 68.32 38.3699 67.85 38.3699 67.85C38.5199 68.25 38.8799 68.52 39.1399 68.65C39.8199 68.5 40.2599 68.18 40.3599 67.98C40.3599 67.98 39.6399 67.39 40.1099 66.31C40.1099 66.31 40.5599 67.03 41.4899 66.64C41.5699 66.6 41.5499 66.55 41.4999 66.53C40.2399 66.12 41.0599 65.06 41.1399 64.95C41.7299 65.3 42.2299 64.87 42.2299 64.49ZM38.1099 60.9C37.9699 61.54 37.4099 61.63 37.0599 61.24C37.0899 60.93 37.3999 60.86 38.1099 60.9ZM24.6999 50.21C24.6999 50.37 24.7699 50.51 24.8199 50.59C24.9299 50.75 24.9099 50.84 24.8599 50.89C24.8099 50.94 24.7199 50.96 24.5599 50.85C24.4799 50.79 24.3399 50.73 24.1799 50.73C23.9099 50.73 23.7699 50.91 23.7699 51.06C23.7699 51.21 23.9099 51.39 24.1799 51.39C24.3399 51.39 24.4799 51.32 24.5599 51.27C24.7199 51.16 24.8099 51.18 24.8599 51.23C24.9099 51.28 24.8399 51.83 24.7699 52.27C24.3199 52.37 24.0999 52.73 24.0999 52.94C24.0999 53.49 24.6799 53.8 25.0299 53.99C25.3699 53.81 25.9599 53.49 25.9599 52.94C25.9599 52.73 25.7399 52.36 25.2899 52.27C25.2299 51.84 25.1499 51.28 25.1999 51.23C25.2499 51.18 25.3399 51.16 25.4999 51.27C25.5799 51.33 25.7199 51.39 25.8799 51.39C26.1499 51.39 26.2899 51.21 26.2899 51.06C26.2899 50.91 26.1499 50.73 25.8799 50.73C25.7199 50.73 25.5799 50.8 25.4999 50.85C25.3399 50.96 25.2499 50.94 25.1999 50.89C25.1499 50.84 25.1299 50.75 25.2399 50.59C25.2999 50.51 25.3599 50.37 25.3599 50.21C25.3599 49.94 25.1799 49.8 25.0299 49.8C24.8799 49.8 24.6999 49.94 24.6999 50.21ZM25.0299 54.27C24.6599 54.27 24.3599 54.57 24.3599 54.94C24.3599 55.31 24.6599 55.61 25.0299 55.61C25.3999 55.61 25.6999 55.31 25.6999 54.94C25.6999 54.57 25.3999 54.27 25.0299 54.27ZM25.0299 60.68C27.6999 60.68 29.1999 61.19 29.1999 61.19C29.2099 59.84 29.2099 59.09 29.9799 59.2C29.5599 58.07 31.3799 57.62 31.3799 56.15C31.3799 55.18 30.6899 55.07 30.4899 55.07C29.8899 55.07 29.9799 55.46 29.4699 55.46C29.4099 55.46 29.3399 55.44 29.3399 55.49C29.3399 55.66 29.4799 55.95 29.7199 55.95C30.0399 55.95 30.0399 55.63 30.2799 55.63C30.3799 55.63 30.5299 55.71 30.5299 56.04C30.5299 56.67 30.1199 57.36 29.6299 57.9C29.5199 57.75 29.3699 57.65 29.1799 57.65C28.8899 57.65 28.6399 57.95 28.6399 58.32C28.6399 58.46 28.6599 58.56 28.7099 58.67C28.5499 58.76 28.3999 58.81 28.2999 58.81C28.0799 58.81 27.7499 58.72 27.7499 58.24C27.7499 57.17 29.1799 56.23 29.1799 54.87C29.1799 54.22 28.7499 53.58 27.8399 53.58C26.8699 53.58 27.0499 54.46 26.2099 54.46C26.1699 54.46 26.1399 54.47 26.1399 54.51C26.1399 54.57 26.2899 55.06 26.7199 55.06C27.1799 55.06 27.3099 54.26 27.7299 54.26C27.8799 54.26 28.1099 54.35 28.1099 54.89C28.1099 55.31 27.8999 56 27.5999 56.65C27.4899 56.54 27.3399 56.46 27.1799 56.46C26.8199 56.46 26.5599 56.81 26.5599 57.22C26.5599 57.48 26.6599 57.74 26.8399 57.9C26.6299 58.17 26.4099 58.39 26.1199 58.39C25.5399 58.39 25.2899 58.06 25.2899 57.7C25.2899 57.31 25.9999 57.17 25.9999 56.57C25.9999 56.16 25.7299 55.93 25.4799 55.93C25.1999 55.93 25.0599 56.11 25.0299 56.11C24.9999 56.11 24.8599 55.93 24.5799 55.93C24.3199 55.93 24.0599 56.16 24.0599 56.57C24.0599 57.17 24.7699 57.32 24.7699 57.7C24.7699 58.06 24.5099 58.39 23.9399 58.39C23.6499 58.39 23.4299 58.17 23.2199 57.9C23.3999 57.73 23.4999 57.48 23.4999 57.22C23.4999 56.8 23.2399 56.46 22.8799 56.46C22.7099 56.46 22.5699 56.54 22.4599 56.65C22.1599 55.99 21.9499 55.31 21.9499 54.89C21.9499 54.35 22.1799 54.26 22.3299 54.26C22.7399 54.26 22.8699 55.06 23.3399 55.06C23.7699 55.06 23.9199 54.57 23.9199 54.51C23.9199 54.48 23.8899 54.46 23.8499 54.46C23.0099 54.46 23.1899 53.58 22.2199 53.58C21.3199 53.58 20.8799 54.22 20.8799 54.87C20.8799 56.23 22.3099 57.17 22.3099 58.24C22.3099 58.72 21.9799 58.81 21.7599 58.81C21.6499 58.81 21.5099 58.76 21.3499 58.67C21.3999 58.55 21.4199 58.46 21.4199 58.32C21.4199 57.95 21.1699 57.65 20.8799 57.65C20.6999 57.65 20.5499 57.75 20.4399 57.9C19.9499 57.36 19.5399 56.67 19.5399 56.04C19.5399 55.72 19.6899 55.63 19.7899 55.63C20.0199 55.63 20.0299 55.95 20.3499 55.95C20.5899 55.95 20.7299 55.66 20.7299 55.49C20.7299 55.44 20.6599 55.46 20.5999 55.46C20.0899 55.46 20.1799 55.07 19.5799 55.07C19.3799 55.07 18.6899 55.18 18.6899 56.15C18.6899 57.63 20.5099 58.07 20.0899 59.2C20.8599 59.09 20.8499 59.84 20.8699 61.19C20.8599 61.19 22.3599 60.68 25.0299 60.68ZM20.1399 62.67C19.4099 62.83 18.8899 62.98 18.6599 63.05C18.6699 62.73 18.7899 62.43 19.0799 62.37C19.1199 62.36 19.1299 62.31 19.0899 62.29C18.4399 61.86 18.0999 62.68 18.0899 62.71C17.8599 62.69 17.5099 62.76 17.5099 63.07C17.5099 64 15.3899 64.51 14.8999 64.59C15.7699 64.92 16.1299 66.02 16.1299 66.02C16.7599 65.39 17.4899 64.84 17.6599 64.84C17.8299 64.84 17.8899 65.05 17.8999 65.17C17.8999 65.21 17.9399 65.22 17.9699 65.19C18.2999 64.7 18.1399 64.59 18.1099 64.44C18.0899 64.33 18.1199 63.9 18.5999 63.95V70.14L18.3499 70.19C18.2399 70.21 17.3299 69.44 16.2999 68.72C15.2599 68 14.7099 68.43 13.5299 69.07C11.9799 69.91 10.4199 69.15 10.4199 69.15C9.08989 70.1 8.62989 72.86 8.62989 72.86C8.35989 72.97 7.91989 73.09 7.50989 73.09C6.48989 73.09 6.30989 72.47 6.30989 72.11C6.30989 70.54 8.27989 69.87 8.27989 68.32C8.27989 67.94 8.10989 66.42 6.21989 66.42C5.97989 66.42 4.53989 66.42 4.52989 66.42C3.81989 66.42 3.64989 65.91 3.54989 65.72C3.50989 65.64 3.43989 65.69 3.46989 65.75C3.51989 65.88 3.38989 66.08 3.38989 66.47C3.38989 67.1 3.75989 67.48 4.44989 67.48C4.75989 67.48 5.05989 67.39 5.14989 67.33C5.20989 67.29 5.24989 67.35 5.21989 67.39C4.91989 67.74 4.89989 68.4 5.01989 68.55C5.04989 68.59 5.08989 68.58 5.08989 68.55C5.25989 67.89 5.87989 67.26 6.71989 67.26C7.74989 67.26 7.73989 68.13 7.73989 68.34C7.73989 69.6 5.52989 70.52 5.52989 72.26C5.52989 74.02 7.38989 74.39 8.45989 74.12C8.39989 75.88 6.37989 76.48 6.31989 75.22C6.31989 75.16 6.26989 75.15 6.23989 75.23C5.98989 75.85 6.08989 76.4 6.86989 76.57C6.91989 76.58 6.89989 76.61 6.84989 76.65C6.06989 77.14 6.48989 79.08 6.52989 79.65C6.58989 80.47 5.76989 80.37 5.69989 80.35C5.66989 80.34 5.62989 80.35 5.68989 80.42C6.26989 81.13 6.98989 80.48 6.98989 80.48C7.52989 80.65 7.19989 81.11 6.82989 81.35C6.76989 81.39 6.77989 81.43 6.83989 81.43C6.91989 81.44 7.75989 81.51 7.90989 80.84C8.27989 81.28 8.82989 81.12 8.93989 81.06C9.09989 80.98 9.88989 80.69 9.95989 81.57C9.95989 81.63 9.99989 81.59 10.0299 81.56C10.6199 80.81 9.98989 80.35 9.62989 80.3C9.65989 80.26 10.1299 79.86 10.5599 80.41C10.5899 80.45 10.6199 80.46 10.6199 80.38C10.6699 79.43 9.89989 79.35 9.39989 79.76C9.37989 79.66 9.20989 79.13 9.95989 79.15C9.97989 79.15 10.0099 79.12 9.97989 79.09C9.39989 78.47 8.91989 79.03 8.79989 79.17C8.53989 79.48 7.88989 79.35 7.82989 79.35C8.02989 76.06 10.9299 77.23 11.3299 75.63C11.3499 75.55 11.3899 75.58 11.3899 75.61C11.4999 76 12.4799 76.05 12.6599 75.29C12.6699 75.24 12.6599 75.21 12.6299 75.24C11.7899 76.08 9.89989 73.46 12.4799 71.33C14.6799 69.52 16.6499 70.53 17.3999 71.12C17.4399 71.38 17.2799 71.47 17.1799 71.5C17.1399 71.51 17.1299 71.54 17.1899 71.57C17.3999 71.65 17.6899 71.62 17.8299 71.43C18.2999 71.76 17.8999 72.18 17.7099 72.29C17.6599 72.32 17.6799 72.35 17.7199 72.36C18.1499 72.44 18.5099 72 18.5299 71.74L18.5999 71.78V73.65C18.5999 76.31 21.6699 76.68 25.0399 78.93C28.4099 76.67 31.4699 76.31 31.4699 73.65V71.78L31.5399 71.74C31.5599 71.99 31.9099 72.44 32.3499 72.36C32.3899 72.35 32.4099 72.32 32.3599 72.29C32.1699 72.17 31.7599 71.76 32.2399 71.43C32.3799 71.63 32.6699 71.65 32.8799 71.57C32.9399 71.55 32.9299 71.51 32.8899 71.5C32.7899 71.47 32.6299 71.38 32.6699 71.12C33.4199 70.52 35.3899 69.51 37.5899 71.33C40.1699 73.46 38.2799 76.07 37.4399 75.24C37.3999 75.2 37.3999 75.24 37.4099 75.29C37.5899 76.06 38.5699 76 38.6799 75.61C38.6899 75.58 38.7299 75.55 38.7399 75.63C39.1399 77.23 42.0299 76.06 42.2399 79.35C42.1799 79.36 41.5299 79.48 41.2699 79.17C41.1599 79.04 40.6799 78.47 40.0899 79.09C40.0499 79.13 40.0899 79.15 40.1099 79.15C40.8599 79.13 40.6999 79.66 40.6699 79.76C40.1699 79.35 39.3999 79.43 39.4499 80.38C39.4499 80.45 39.4799 80.45 39.5099 80.41C39.9399 79.86 40.4099 80.26 40.4399 80.3C40.0899 80.35 39.4499 80.81 40.0399 81.56C40.0699 81.59 40.0999 81.63 40.1099 81.57C40.1899 80.69 40.9699 80.97 41.1299 81.06C41.2399 81.12 41.7899 81.28 42.1599 80.84C42.3099 81.51 43.1499 81.44 43.2299 81.43C43.2899 81.43 43.2899 81.39 43.2399 81.35C42.8799 81.11 42.5399 80.65 43.0799 80.48C43.0799 80.48 43.7999 81.13 44.3799 80.42C44.4299 80.36 44.3999 80.34 44.3699 80.35C44.2999 80.37 43.4799 80.47 43.5399 79.65C43.5799 79.08 43.9999 77.14 43.2199 76.65C43.1699 76.62 43.1499 76.59 43.1999 76.57C43.9799 76.4 44.0799 75.85 43.8299 75.23C43.7999 75.15 43.7499 75.17 43.7499 75.22C43.6899 76.48 41.6799 75.88 41.6099 74.12C42.6899 74.4 44.5399 74.02 44.5399 72.26C44.5399 70.53 42.3299 69.6 42.3299 68.34C42.3299 68.13 42.3199 67.26 43.3499 67.26C44.1899 67.26 44.8099 67.89 44.9799 68.55C44.9899 68.58 45.0199 68.59 45.0499 68.55C45.1699 68.39 45.1499 67.74 44.8499 67.39C44.8199 67.36 44.8499 67.29 44.9199 67.33C45.0099 67.39 45.3099 67.48 45.6199 67.48C46.3099 67.48 46.6799 67.1 46.6799 66.47C46.6799 66.08 46.5399 65.88 46.5999 65.75C46.6299 65.69 46.5499 65.65 46.5199 65.72C46.4199 65.92 46.2399 66.42 45.5399 66.42C45.5299 66.42 44.0899 66.42 43.8499 66.42C41.9599 66.42 41.7899 67.95 41.7899 68.32C41.7899 69.87 43.7599 70.54 43.7599 72.11C43.7599 72.48 43.5699 73.09 42.5599 73.09C42.1399 73.09 41.6999 72.97 41.4399 72.86C41.4399 72.86 40.9899 70.11 39.6499 69.15C39.6499 69.15 38.0899 69.91 36.5399 69.07C35.3599 68.43 34.7999 68 33.7599 68.72C32.7199 69.44 31.8199 70.21 31.7099 70.19L31.4599 70.14V63.95C31.9399 63.9 31.9699 64.33 31.9499 64.44C31.9199 64.58 31.7699 64.7 32.0899 65.19C32.1199 65.23 32.1499 65.21 32.1599 65.17C32.1699 65.05 32.2399 64.84 32.3999 64.84C32.5599 64.84 33.2999 65.39 33.9299 66.02C33.9299 66.02 34.2899 64.93 35.1599 64.59C34.6699 64.51 32.5499 64 32.5499 63.07C32.5499 62.76 32.1999 62.69 31.9699 62.71C31.9599 62.68 31.6099 61.86 30.9699 62.29C30.9399 62.31 30.9399 62.36 30.9799 62.37C31.2699 62.44 31.3899 62.73 31.3999 63.05C30.7799 62.86 28.1499 62.12 25.0299 62.12C23.5099 62.12 22.1199 62.3 21.0099 62.5V64.64H20.1399V62.67ZM14.3799 84.65C14.1499 84.56 13.9999 84.41 13.9999 84.1V82.77C13.6199 82.64 12.5799 82.24 10.4899 82.24C8.75989 82.24 8.21989 82.63 8.18989 82.77L7.72989 85.3C7.72989 85.3 8.42989 84.66 10.9399 84.82C13.9599 85.01 17.0899 86.8 17.0899 84.89V83.77C14.7299 83.78 14.3799 84.54 14.3799 84.65ZM32.9699 83.78V84.9C32.9699 86.8 36.0999 85.02 39.1199 84.83C41.6299 84.67 42.3299 85.31 42.3299 85.31L41.8699 82.77C41.8499 82.63 41.2999 82.24 39.5699 82.24C37.4899 82.24 36.4499 82.64 36.0599 82.77V84.1C36.0599 84.4 35.9099 84.55 35.6799 84.65C35.6899 84.54 35.3399 83.78 32.9699 83.78ZM25.0299 82.63C29.8999 82.63 34.8399 82.88 35.4799 83.62C35.5299 83.68 35.5499 83.62 35.5499 83.57V80.99C35.5499 80.24 30.4499 79.8 25.0199 79.8C19.5899 79.8 14.4899 80.24 14.4899 80.99V83.57C14.4899 83.61 14.5099 83.67 14.5599 83.62C15.2299 82.89 20.1699 82.63 25.0299 82.63ZM20.6899 70.47L20.1999 70.34L20.1599 70.4L19.5899 70.15C19.5899 70.15 20.0099 70.15 20.0999 70.15C20.1499 70.15 20.1499 70.12 20.1299 70.1C19.8999 69.87 19.6899 69.67 19.6899 69.67C19.6899 69.67 19.9199 69.76 20.2499 69.88C20.2899 69.89 20.2999 69.87 20.2799 69.84C20.1199 69.61 19.8999 69.29 19.8999 69.29C19.8999 69.29 20.3599 69.6 20.4499 69.66C20.4799 69.68 20.4999 69.66 20.4899 69.63C20.3699 69.33 20.2299 68.98 20.2299 68.98L20.7299 69.46C20.7499 69.48 20.7799 69.47 20.7699 69.44C20.7199 69.21 20.6299 68.79 20.6299 68.79L20.9999 69.33C21.0199 69.36 21.0499 69.35 21.0499 69.32C21.0499 69.21 21.0599 68.73 21.0599 68.73C21.0599 68.73 21.2199 69.09 21.2899 69.27C21.3099 69.31 21.3299 69.31 21.3499 69.26C21.3699 69.2 21.5399 68.8 21.5399 68.8L21.5599 69.42L21.4799 69.44L21.3799 70.18C22.1099 70.01 23.0299 68.75 23.7299 68.75C24.5699 68.75 24.8699 69.73 26.4099 69.23C26.7999 69.81 26.9399 70.31 27.0899 71C27.6899 71.56 28.5199 71.37 28.5199 70.78C28.5199 69.98 27.6499 69.83 27.6499 68.99C27.6499 68.62 27.9099 68.08 28.6199 68.08C28.9999 68.08 29.5499 68.24 29.8699 68.24C30.2499 68.24 30.3299 67.97 30.3699 67.85C30.3999 67.77 30.5099 67.79 30.4999 67.86C30.4899 67.94 30.5399 68.05 30.5399 68.23C30.5399 68.76 29.7699 68.83 29.6799 68.76C29.6399 68.73 29.6099 68.77 29.6399 68.8C29.7599 68.89 29.7299 69.21 29.5899 69.41C29.5699 69.43 29.5499 69.43 29.5499 69.41C29.4699 69.03 29.0199 68.56 28.6299 68.56C28.4899 68.56 28.1999 68.64 28.1999 68.98C28.1999 69.45 29.1499 69.89 29.1499 70.87C29.1499 71.89 28.1399 72.14 27.1199 71.88C27.1499 72.85 28.5999 73.42 28.6299 72.73C28.6299 72.68 28.6599 72.71 28.6699 72.73C28.8799 73.03 28.7899 73.25 28.5099 73.37C28.7599 73.48 28.8099 73.99 28.8799 74.3C28.9899 74.76 29.4699 74.5 29.4999 74.49C29.5299 74.47 29.5399 74.49 29.5199 74.52C29.3399 74.99 28.8499 74.81 28.8499 74.81C28.5999 74.99 28.8999 75.15 29.1299 75.22C29.1599 75.23 29.1599 75.25 29.1399 75.27C28.9699 75.33 28.6099 75.45 28.4299 75.14C28.2999 75.46 28.0299 75.45 27.9299 75.45C27.7399 75.45 27.6199 75.64 27.6599 75.9C27.6599 75.92 27.6499 75.93 27.6299 75.92C27.1899 75.63 27.4399 75.28 27.6199 75.19C27.5899 75.17 27.2799 75.04 27.1499 75.4C27.1399 75.43 27.1199 75.43 27.1099 75.4C26.9199 74.88 27.3399 74.73 27.6399 74.86C27.6199 74.79 27.4599 74.53 27.0599 74.62C27.0399 74.63 27.0299 74.62 27.0399 74.59C27.1099 74.43 27.2999 74.2 27.6699 74.43C27.8599 74.55 28.1799 74.38 28.2099 74.36C27.5599 73.07 26.3099 74.15 26.0199 73.14C26.0099 73.12 25.9899 73.1 25.9699 73.16C25.8999 73.37 25.3499 73.39 25.2499 72.97C25.2399 72.94 25.2499 72.93 25.2799 72.95C25.3599 73.03 25.5299 73.1 25.7599 72.78C25.9099 72.56 25.9299 72.27 25.9299 72.08C25.9299 71.3 25.1499 69.98 23.9299 69.98C23.1599 69.98 22.3299 70.28 21.7099 70.73L22.2799 70.86C22.2299 71.44 21.6699 71.78 21.1599 71.63L21.2499 70.97C21.1599 71 20.9399 71.08 20.8199 71.25C20.8099 71.26 20.7899 71.26 20.7899 71.24C20.6899 70.86 20.9999 70.67 21.0899 70.63C21.0999 70.62 21.0999 70.62 21.0799 70.62C20.7999 70.61 20.6499 70.81 20.5999 70.88C20.5899 70.89 20.5799 70.89 20.5799 70.88C20.6099 70.8 20.5599 70.61 20.6899 70.47ZM22.3999 74.95C22.1799 75.22 21.9899 74.96 21.6999 74.96C21.4299 74.96 21.3799 75.19 21.3799 75.28C21.3799 75.3 21.3699 75.3 21.3599 75.29C21.0499 74.87 21.3999 74.64 21.5999 74.61C21.5699 74.58 21.2699 74.38 21.0799 74.66C21.0699 74.68 21.0499 74.67 21.0499 74.65C21.0399 74.13 21.4499 74.09 21.7299 74.32C21.7799 74.12 21.6499 73.99 21.4299 73.98C21.3999 73.98 21.3999 73.96 21.4099 73.95C21.4999 73.85 21.5899 73.81 21.6799 73.81C21.9699 73.81 22.0099 74.18 22.1999 74.18C22.4799 74.18 22.8899 73.8 22.9199 73.76C22.9099 73.74 22.6399 73 22.6899 72.56C22.6899 72.54 22.6799 72.54 22.6699 72.55C22.5299 72.63 22.1899 72.62 22.1899 72.2C22.1899 72.17 22.1999 72.16 22.2199 72.19C22.3699 72.4 22.6199 72.16 22.7399 72.02C22.8699 71.87 23.5899 70.83 24.5399 70.83C24.7499 70.83 25.0199 70.95 25.2399 71.1C24.9099 71.5 25.2399 71.88 25.4799 71.83C25.5099 71.82 25.5099 71.85 25.4899 71.86C24.2299 72.33 23.6699 72.52 23.6699 73.58C23.6699 74.13 23.8599 74.44 24.1799 74.36C24.1999 74.35 24.2099 74.36 24.1899 74.38C24.0699 74.52 23.9399 74.57 23.8299 74.57C23.5699 74.57 23.5199 74.43 23.3799 74.43C23.2399 74.43 22.7699 74.71 22.7699 74.94C22.7699 75.03 22.8299 75.15 22.9899 75.25C22.9999 75.26 22.9899 75.27 22.9899 75.27C22.8499 75.27 22.4799 75.3 22.3999 74.95ZM25.7099 64.7C25.3199 64.68 25.0599 64.76 25.0799 64.89C25.2699 65.09 25.5199 65.07 25.7099 64.7ZM24.2599 65.67C24.5399 65.6 24.8399 65.63 24.8799 65.64C24.9199 65.65 24.9199 65.72 24.8699 65.73C24.2899 65.8 24.2599 66.07 23.8899 66.07C23.6499 66.07 23.3799 65.82 23.4799 65.46C23.4899 65.41 23.5299 65.41 23.5399 65.46C23.5799 65.62 23.8099 65.79 24.2599 65.67ZM16.7299 78.53C17.1099 79.02 17.4799 78.56 17.9899 78.56C18.2399 78.56 18.5399 78.64 18.5899 79.14C18.5899 79.17 18.6099 79.17 18.6399 79.14C19.1899 78.39 18.5599 77.97 18.1999 77.91C18.2799 77.84 18.8099 77.51 19.1599 78C19.1799 78.03 19.2199 78.02 19.2199 77.98C19.2199 77.03 18.5099 76.96 17.9899 77.37C17.8899 77 18.1699 76.76 18.5299 76.76C18.5699 76.76 18.5899 76.73 18.5699 76.71C17.9299 76.03 17.4599 76.89 17.3499 77.02C17.0999 77.36 16.1899 76.72 15.8199 76.34C15.8199 76.34 16.6199 75.5 16.6199 74.73C16.6199 74.68 16.6099 74.62 16.6099 74.59C16.6099 74.57 16.6199 74.56 16.6399 74.57C16.7199 74.62 16.8299 74.65 16.9399 74.65C17.1199 74.65 17.4699 74.59 17.4699 73.94C17.4699 73.89 17.4499 73.89 17.4299 73.92C17.3299 74.06 17.2299 74.09 17.1499 74.09C16.4999 74.09 15.1499 71.93 13.5499 71.93C13.1299 71.93 12.3399 72.23 11.9499 72.66C12.1399 72.77 12.1799 73.01 12.1599 73.18C12.1299 73.45 11.9099 73.59 11.6899 73.65C11.6499 73.66 11.6499 73.69 11.6899 73.71C12.4999 74.02 13.9599 74.57 14.2999 74.86C14.6899 75.2 14.6199 75.84 14.3899 76.73C14.1699 77.58 13.6999 77.47 13.5199 77.44C13.4899 77.44 13.4899 77.45 13.4999 77.47C13.7099 77.73 13.9599 77.82 14.1799 77.82C14.5999 77.82 14.7599 77.56 14.9699 77.56C15.3299 77.56 16.0999 78.08 16.0999 78.48C16.0999 78.7 15.9299 78.91 15.6999 79.05C15.6899 79.06 15.6899 79.08 15.7099 79.08C15.8799 79.11 16.5899 79.17 16.7299 78.53ZM34.3599 79.08C34.3799 79.08 34.3899 79.06 34.3699 79.05C34.1499 78.9 33.9699 78.7 33.9699 78.48C33.9699 78.08 34.7299 77.56 35.0999 77.56C35.3199 77.56 35.4699 77.82 35.8899 77.82C36.1099 77.82 36.3599 77.73 36.5699 77.47C36.5899 77.45 36.5799 77.43 36.5499 77.44C36.3799 77.47 35.8999 77.58 35.6799 76.73C35.4499 75.84 35.3699 75.2 35.7699 74.86C36.0999 74.57 37.5699 74.02 38.3799 73.71C38.4199 73.69 38.4199 73.66 38.3799 73.65C38.1599 73.59 37.9399 73.45 37.9099 73.18C37.8899 73.01 37.9299 72.78 38.1199 72.66C37.7199 72.23 36.9299 71.93 36.5099 71.93C34.9099 71.93 33.5599 74.09 32.9099 74.09C32.8299 74.09 32.7199 74.06 32.6299 73.92C32.6099 73.89 32.5899 73.89 32.5899 73.94C32.5899 74.59 32.9399 74.65 33.1199 74.65C33.2199 74.65 33.3399 74.62 33.4199 74.57C33.4399 74.56 33.4499 74.57 33.4499 74.59C33.4499 74.62 33.4399 74.68 33.4399 74.73C33.4399 75.5 34.2399 76.34 34.2399 76.34C33.8799 76.72 32.9699 77.35 32.7099 77.02C32.5999 76.88 32.1299 76.03 31.4899 76.71C31.4699 76.74 31.4799 76.76 31.5299 76.76C31.8899 76.76 32.1699 77 32.0699 77.37C31.5499 76.96 30.8399 77.03 30.8399 77.98C30.8399 78.02 30.8799 78.03 30.8999 78C31.2399 77.51 31.7799 77.84 31.8499 77.91C31.4899 77.96 30.8699 78.39 31.4099 79.14C31.4299 79.17 31.4499 79.17 31.4599 79.14C31.5199 78.65 31.8199 78.56 32.0599 78.56C32.5599 78.56 32.9299 79.02 33.3199 78.53C33.4799 79.17 34.1899 79.11 34.3599 79.08ZM21.4499 66.61C21.3999 66.68 21.2299 66.61 21.1699 66.58C21.1599 66.57 21.1499 66.58 21.1599 66.59C21.1999 66.68 21.3599 66.95 21.5999 66.95C21.7099 66.95 21.8699 66.89 21.9099 66.81C21.9099 66.81 22.8499 67.12 23.3099 67.24C23.1299 67.48 23.0199 67.77 22.9899 68.08C22.6199 67.85 21.1199 67.05 21.1199 67.05L20.6599 67.69C20.5799 67.79 20.2099 67.52 20.2899 67.42L20.6399 66.93C20.5199 66.81 20.2399 66.88 20.1599 66.91C20.1499 66.91 20.1399 66.91 20.1499 66.89C20.1999 66.79 20.3699 66.5 20.8099 66.63C20.8099 66.36 20.4099 66.45 20.2999 66.48C20.2899 66.48 20.2799 66.48 20.2899 66.47C20.3999 66.35 20.7299 66.09 21.0899 66.31L21.2499 66.09L20.9299 65.75L21.1299 65.47L21.3599 65.77L23.0899 63.4C23.1299 63.34 23.4799 63.24 23.5999 63.21C23.6099 63.34 23.6299 63.7 23.5899 63.76L21.8899 66.15L22.2499 66.27L22.0499 66.55L21.6299 66.35L21.4499 66.61ZM27.5199 66.22C27.5199 66.44 27.6499 66.76 27.9399 66.66C27.9499 66.65 27.9699 66.66 27.9599 66.67C27.9199 66.91 27.4799 67.13 27.2899 66.85C27.1099 67.22 27.1599 67.57 27.5299 67.77C27.5499 67.78 27.5499 67.81 27.5299 67.83C27.2999 67.99 26.9499 67.96 26.7899 67.64C26.4799 67.87 26.5199 68.37 26.7099 68.54C26.7099 68.54 25.8499 69.05 25.0699 68.69C24.5499 68.44 24.1299 68.12 23.4599 68.18C23.5499 67.24 24.0199 67 24.8799 66.86C25.5699 66.75 25.6499 66.43 25.5599 66.19C25.3299 66.13 24.8999 66.34 24.8999 66.34C24.8199 66.21 24.9299 66.08 24.9299 66.08C24.8899 66.03 24.8699 65.86 24.8699 65.86C25.3499 65.86 25.4399 65.75 25.4399 65.75C25.5299 65.25 25.0199 65.2 24.6299 65.47C24.4499 65.31 24.4799 65.1 24.4799 65.1C24.4299 65.07 24.3899 64.99 24.3899 64.95C24.3899 64.83 24.9599 64.51 25.1099 64.47C25.1499 64.3 25.3499 64.07 25.9599 64.13C26.0299 63.97 25.9099 63.38 25.8399 63.23C25.8199 63.18 25.8499 63.16 25.8999 63.19C26.1099 63.32 26.3199 63.82 26.4699 63.83C26.4699 63.83 27.1499 63.47 27.1799 63.49C27.2099 63.51 27.3099 64.27 27.3099 64.27C27.3999 64.38 27.9299 64.27 28.1599 64.37C28.2199 64.4 28.2199 64.44 28.1599 64.45C27.9899 64.48 27.4399 64.72 27.3499 64.87C27.6699 65.34 27.5199 66.03 27.5199 66.22Z" fill="white"/>
</svg>
