<svg width="10" height="14" viewBox="0 0 10 14" fill="none" xmlns="http://www.w3.org/2000/svg">
<path d="M5.00799 0.00699329C4.16617 0.00699329 3.39893 0.20413 2.70629 0.598402C2.02431 0.982018 1.48618 1.52015 1.09191 2.21279C0.708292 2.89477 0.516483 3.65668 0.516483 4.4985C0.516483 4.95671 0.585747 5.41492 0.724276 5.87313C0.852148 6.2674 1.03863 6.68831 1.28372 7.13586C1.44356 7.41292 1.70463 7.82851 2.06693 8.38262C2.54645 9.13919 2.95671 9.87446 3.2977 10.5884C3.74525 11.5368 4.0969 12.5065 4.35265 13.4975C4.39527 13.6467 4.47519 13.7692 4.59241 13.8651C4.70962 13.9504 4.84282 13.993 4.99201 13.993C5.15185 13.993 5.29038 13.9504 5.40759 13.8651C5.52481 13.7692 5.60473 13.6467 5.64735 13.4975C5.9031 12.5065 6.25474 11.5368 6.7023 10.5884C7.04329 9.87446 7.45355 9.13919 7.93307 8.38262C8.29537 7.82851 8.55644 7.41292 8.71628 7.13586C8.96137 6.68831 9.14785 6.2674 9.27572 5.87313C9.41425 5.41492 9.48352 4.95671 9.48352 4.4985C9.48352 3.65668 9.28638 2.89477 8.89211 2.21279C8.50849 1.52015 7.97036 0.982018 7.27772 0.598402C6.59574 0.20413 5.83916 0.00699329 5.00799 0.00699329ZM5.00799 7.05594C4.53913 7.05594 4.10756 6.94406 3.71329 6.72028C3.32967 6.48585 3.02065 6.1715 2.78621 5.77722C2.56244 5.38295 2.45055 4.95671 2.45055 4.4985C2.45055 4.04029 2.56244 3.61405 2.78621 3.21978C3.02065 2.82551 3.32967 2.51648 3.71329 2.29271C4.10756 2.06893 4.5338 1.95704 4.99201 1.95704C5.46087 1.95704 5.88711 2.06893 6.27073 2.29271C6.665 2.51648 6.97403 2.82551 7.1978 3.21978C7.43223 3.61405 7.54945 4.04029 7.54945 4.4985C7.54945 4.95671 7.43223 5.38295 7.1978 5.77722C6.97403 6.1715 6.665 6.48585 6.27073 6.72028C5.88711 6.94406 5.4662 7.05594 5.00799 7.05594ZM3.74525 4.4985C3.74525 4.83949 3.8678 5.13253 4.11289 5.37762C4.35798 5.62271 4.65102 5.74526 4.99201 5.74526C5.34366 5.74526 5.64202 5.62271 5.88711 5.37762C6.1322 5.13253 6.25474 4.83949 6.25474 4.4985C6.25474 4.15751 6.1322 3.86447 5.88711 3.61938C5.64202 3.37429 5.34366 3.25175 4.99201 3.25175C4.65102 3.25175 4.35798 3.37429 4.11289 3.61938C3.8678 3.86447 3.74525 4.15751 3.74525 4.4985Z" fill="black" fill-opacity="0.5"/>
</svg>
